<svg xmlns="http://www.w3.org/2000/svg" width="12" height="12" viewBox="0 0 12 12">
    <g fill="none" fill-rule="evenodd">
        <g>
            <g>
                <g>
                    <g>
                        <path fill="#4D4D4D" d="M2.561 1.81H9.42c.276 0 .5.224.5.5 0 .106-.034.208-.095.293l-2.55 3.534c-.123.17-.19.375-.19.585v2.956c0 .276-.223.5-.5.5H5.68c-.276 0-.5-.224-.5-.5V6.97c0-.217-.07-.427-.2-.6l-2.818-3.76c-.165-.222-.12-.535.1-.7.087-.065.192-.1.3-.1z" transform="translate(-1025.000000, -945.000000) translate(436.000000, 743.000000) translate(24.000000, 184.000000) translate(565.000000, 18.000000)"/>
                    </g>
                </g>
            </g>
        </g>
    </g>
</svg>
